<svg width="24" height="24" viewBox="0 0 24 24" fill="none" xmlns="http://www.w3.org/2000/svg">
<g clip-path="url(#clip0_328_225)">
<mask id="mask0_328_225" style="mask-type:luminance" maskUnits="userSpaceOnUse" x="0" y="0" width="24" height="24">
<path d="M24 0H0V24H24V0Z" fill="white"/>
</mask>
<g mask="url(#mask0_328_225)">
<path d="M12 1C7.03 1 3 5.03 3 10V17C3 18.66 4.34 20 6 20H9V12H5V10C5 6.13 8.13 3 12 3C15.87 3 19 6.13 19 10V12H15V20H18C19.66 20 21 18.66 21 17V10C21 5.03 16.97 1 12 1Z" fill="white"/>
</g>
</g>
<defs>
<clipPath id="clip0_328_225">
<rect width="24" height="24" fill="white"/>
</clipPath>
</defs>
</svg>
